<svg width="48" height="48" viewBox="0 0 48 48" fill="none" xmlns="http://www.w3.org/2000/svg">
<g clip-path="url(#clip0_155_571)">
<path d="M19 35L21.8 20.9L20 21.6V25H18V20.3L23.05 18.15C23.2833 18.05 23.5292 17.9917 23.7875 17.975C24.0458 17.9583 24.2917 17.9917 24.525 18.075C24.7583 18.1583 24.9792 18.275 25.1875 18.425C25.3958 18.575 25.5667 18.7667 25.7 19L26.7 20.6C27.1333 21.3 27.7208 21.875 28.4625 22.325C29.2042 22.775 30.05 23 31 23V25C29.8333 25 28.7917 24.7583 27.875 24.275C26.9583 23.7917 26.175 23.175 25.525 22.425L24.9 25.5L27 27.5V35H25V28.5L22.9 26.9L21.1 35H19ZM25.5 17.5C24.95 17.5 24.4792 17.3042 24.0875 16.9125C23.6958 16.5208 23.5 16.05 23.5 15.5C23.5 14.95 23.6958 14.4792 24.0875 14.0875C24.4792 13.6958 24.95 13.5 25.5 13.5C26.05 13.5 26.5208 13.6958 26.9125 14.0875C27.3042 14.4792 27.5 14.95 27.5 15.5C27.5 16.05 27.3042 16.5208 26.9125 16.9125C26.5208 17.3042 26.05 17.5 25.5 17.5Z" fill="white"/>
</g>
<defs>
<clipPath id="clip0_155_571">
<rect x="4" y="4" width="40" height="40" rx="20" fill="white"/>
</clipPath>
</defs>
</svg>
